<svg xmlns="http://www.w3.org/2000/svg" viewBox="0 0 31.51 26.26"><defs><style>.cls-1{fill:#f79e60;}.cls-2{fill:#d77d41;}.cls-3{fill:#f9d11f;}.cls-4{fill:#fff;}.cls-5{fill:#128722;}.cls-6{fill:#ed2061;}.cls-7{fill:#d0987b;}</style></defs><g id="Layer_2" data-name="Layer 2"><g id="Layer_1-2" data-name="Layer 1"><path class="cls-1" d="M1.3,8.67a22.27,22.27,0,0,1,3-1.62c.85-.28,1.63-1.81,2.79-2.19s1.66-1.7,3-2,2.22-1.77,3.38-1.79,2.07,2.63,2.07,2.63-11.39,6-11.14,8.93L2,12.46S.35,9.22,1.3,8.67"/><path class="cls-2" d="M4.33,12.62,2,12.46s-2.06-4.57,0-3.71S4.33,12.62,4.33,12.62Z"/><path class="cls-2" d="M4.33,12.62s16,1.44,18.38,2.43c0,0-.66-2.56-17.39-3.54L4,11.57A3,3,0,0,0,4.33,12.62Z"/><path class="cls-3" d="M15.47,3.69S23,6.48,27.17,11.44a16.7,16.7,0,0,1,3.21,8.81c.19,2.55,0,5.16-.33,5s-.57-.45-.8-5.54c0,0-.14-1.21-.71-1.25-.42,0-.49.28-.48.87,0,.81,0,2-.08,3-.11,1.21-.49,1.25-.8.07A18.16,18.16,0,0,1,27,20.49s-.69-3.85-1.35-3.53c0,0-.88-.12-.88,2.49a3.14,3.14,0,0,1-.05.87c-.18.42-.56.33-.69-.91A11.17,11.17,0,0,0,23.37,16a2.37,2.37,0,0,0-.66-.94s-1.52-1.55-6.92-2.46c0,0-6.19-.78-9-1l-2.68,0S5.82,9,11.37,5.86Z"/><path class="cls-4" d="M13.44,1c1.15,0,2.05,2.63,2.05,2.63h0l-.09,0,.09,0h0S23,6.45,27.19,11.41a16.7,16.7,0,0,1,3.21,8.81c.19,2.48,0,5-.31,5h0c-.38-.17-.57-.45-.8-5.53,0,0-.14-1.22-.7-1.26h-.06c-.38,0-.43.3-.43.88,0,.8,0,2-.08,2.95-.05.62-.18.93-.33.93s-.31-.28-.47-.86c-.08-.32-.1-.79-.22-1.88,0,0-.63-3.55-1.27-3.55l-.08,0h0c-.13,0-.87.1-.87,2.49a3.09,3.09,0,0,1-.05.87c-.06.14-.14.22-.23.22s-.37-.31-.46-1.13A11.17,11.17,0,0,0,23.39,16a2.37,2.37,0,0,0-.66-.94C20.4,14,4.36,12.59,4.36,12.59L2,12.43S.74,9.93,1.08,9a.45.45,0,0,1,.23-.3h0A21.91,21.91,0,0,1,4.3,7c.84-.27,1.62-1.81,2.78-2.19s1.66-1.7,3-2S12.27,1.05,13.42,1h0M6.81,11.58h0m9.06,1h0M13.44,0h0a4.1,4.1,0,0,0-2.33,1.07,3.7,3.7,0,0,1-1.26.75A4.39,4.39,0,0,0,7.72,3.14a3,3,0,0,1-1,.72,5.09,5.09,0,0,0-2,1.51A3.75,3.75,0,0,1,4,6,22,22,0,0,0,.78,7.77a1.5,1.5,0,0,0-.68.87c-.41,1.26.53,3.39,1,4.25l.27.53.59,0,2.38.16c5.94.53,15.85,1.61,17.88,2.28a1.7,1.7,0,0,1,.26.42A10.2,10.2,0,0,1,23,19.49c.15,1.36.65,2.05,1.48,2.05a1.29,1.29,0,0,0,1.18-.86,2.63,2.63,0,0,0,.13-1c.07.3.13.6.18.89s.07.67.1.91a5.81,5.81,0,0,0,.15,1.09c.12.44.43,1.62,1.46,1.62a1.07,1.07,0,0,0,.84-.36c.19,1.62.48,2,1.13,2.29l.2.1h.25a1.09,1.09,0,0,0,.82-.36c.85-.92.55-5.27.51-5.76A17.52,17.52,0,0,0,28,10.75C24.23,6.29,18,3.57,16.29,2.87,15.91,1.91,15,0,13.44,0Z"/><rect class="cls-5" x="15.19" y="10.45" width="2.45" height="0.36" transform="translate(-2.24 4.77) rotate(-15.48)"/><polygon class="cls-5" points="10.47 10.08 8.92 10.08 9.06 9.85 10.6 9.84 10.47 10.08"/><polygon class="cls-5" points="25.8 14.48 24.94 13.19 25.21 13.18 26.06 14.46 25.8 14.48"/><polygon class="cls-5" points="28.47 15.28 27.65 14.91 27.79 14.81 28.61 15.19 28.47 15.28"/><polygon class="cls-5" points="23.15 10.28 22.71 9.7 22.84 9.61 23.29 10.19 23.15 10.28"/><circle class="cls-6" cx="20.95" cy="9.45" r="1.64"/><path class="cls-6" d="M26.42,10.6a1,1,0,0,0-.92,1,1,1,0,0,0,1,1,1,1,0,0,0,1-.77L27,11.28Z"/><path class="cls-6" d="M13.37,12.3v-.11a1,1,0,0,1,2,0,1,1,0,0,1-.06.34Z"/><circle class="cls-6" cx="16.42" cy="7.28" r="1.28"/><circle class="cls-6" cx="27.47" cy="17.25" r="0.8"/><path class="cls-7" d="M13.08,7.62s1.93-.93,1.05.83-3,.66-3,.66-.83-.82-.39-1.21,1,.33,1.27.11-1-1.32-.39-1.76,1.16-.33,1.1.71Z"/><path class="cls-7" d="M23.15,13.1s1.36.16.28.81-1.83-.66-1.83-.66-.16-.73.21-.79.42.52.64.49-.08-1,.4-1.08.74.22.35.76Z"/></g></g></svg>